<?xml version="1.0" encoding="utf-8"?>
<!-- Generator: Adobe Illustrator 21.1.0, SVG Export Plug-In . SVG Version: 6.00 Build 0)  -->
<svg version="1.1" id="Layer_1" xmlns="http://www.w3.org/2000/svg" xmlns:xlink="http://www.w3.org/1999/xlink" x="0px" y="0px"
	 viewBox="0 0 532 792" style="enable-background:new 0 0 532 792;" xml:space="preserve">
<style type="text/css">
	.st0{fill:#FFFFFF;stroke:#000000;stroke-miterlimit:10;}
	.st1{fill:#FFFFFF;stroke:#544DA0;stroke-width:4;stroke-miterlimit:10;}
	.st2{font-family:'Abolition-Regular';}
	.st3{font-size:892.2881px;}
	.st4{fill:none;stroke:#5A4FA1;stroke-width:12;stroke-miterlimit:10;}
</style>
<rect class="st0" width="532" height="792"/>
<polygon class="st1" points="-210.1,-29.9 -243.1,-31.2 -262.7,-57.7 -254.1,-89.6 -223.9,-102.8 -194.7,-87.3 -188.6,-54.9 "/>
<polygon class="st1" points="-213,-36.4 -240.3,-37.4 -256.5,-59.4 -249.4,-85.7 -224.4,-96.7 -200.3,-83.9 -195.2,-57.1 "/>
<path class="st1" d="M-226.9-47.5L-226.9-47.5c-5.1-0.2-9.9-2.7-12.9-6.8l0,0c-3-4.1-4-9.4-2.7-14.4l0,0c1.3-5,4.8-9,9.5-11.1l0,0
	c4.7-2,10.1-1.8,14.6,0.6l0,0c4.5,2.4,7.7,6.7,8.7,11.8l0,0c1,5-0.4,10.2-3.8,14.1l0,0C-216.9-49.4-221.8-47.3-226.9-47.5z"/>
<text transform="matrix(1 0 0 1 -2.136230e-04 732.1982)" class="st2 st3">LS</text>
<text transform="matrix(1 0 0 1 -2.136230e-04 732.1982)" class="st4 st2 st3">LS</text>
</svg>
